<svg width="64" height="64" viewBox="0 0 64 64" fill="none" xmlns="http://www.w3.org/2000/svg">
<g clip-path="url(#clip0_202_4377)">
<path d="M22.8571 6.84375C22.8571 3.06543 25.9286 0 29.7143 0H34.2857C38.0714 0 41.1429 3.06543 41.1429 6.84375V57.0312C41.1429 60.8096 38.0714 63.875 34.2857 63.875H29.7143C25.9286 63.875 22.8571 60.8096 22.8571 57.0312V6.84375ZM0 34.2188C0 30.4404 3.07143 27.375 6.85714 27.375H11.4286C15.2143 27.375 18.2857 30.4404 18.2857 34.2188V57.0312C18.2857 60.8096 15.2143 63.875 11.4286 63.875H6.85714C3.07143 63.875 0 60.8096 0 57.0312V34.2188ZM52.5714 9.125H57.1429C60.9286 9.125 64 12.1904 64 15.9688V57.0312C64 60.8096 60.9286 63.875 57.1429 63.875H52.5714C48.7857 63.875 45.7143 60.8096 45.7143 57.0312V15.9688C45.7143 12.1904 48.7857 9.125 52.5714 9.125Z" fill="#42814A"/>
</g>
<defs>
<clipPath id="clip0_202_4377">
<rect width="64" height="64" fill="white"/>
</clipPath>
</defs>
</svg>