<svg xmlns="http://www.w3.org/2000/svg" width="64" height="64" viewBox="0 0 64 64" fill="none">
  <g clip-path="url(#clip0_194_4382)">
    <path d="M36 4C36 6.2125 37.7875 8 40 8H44C46.2125 8 48 9.7875 48 12C48 14.2125 46.2125 16 44 16H4C1.7875 16 0 17.7875 0 20C0 22.2125 1.7875 24 4 24H44C50.625 24 56 18.625 56 12C56 5.375 50.625 0 44 0H40C37.7875 0 36 1.7875 36 4ZM44 48C44 50.2125 45.7875 52 48 52H52C58.625 52 64 46.625 64 40C64 33.375 58.625 28 52 28H4C1.7875 28 0 29.7875 0 32C0 34.2125 1.7875 36 4 36H52C54.2125 36 56 37.7875 56 40C56 42.2125 54.2125 44 52 44H48C45.7875 44 44 45.7875 44 48ZM16 64H20C26.625 64 32 58.625 32 52C32 45.375 26.625 40 20 40H4C1.7875 40 0 41.7875 0 44C0 46.2125 1.7875 48 4 48H20C22.2125 48 24 49.7875 24 52C24 54.2125 22.2125 56 20 56H16C13.7875 56 12 57.7875 12 60C12 62.2125 13.7875 64 16 64Z" fill="#053662"/>
  </g>
  <defs>
    <clipPath id="clip0_194_4382">
      <rect width="64" height="64" fill="white"/>
    </clipPath>
  </defs>
</svg>