<svg xmlns="http://www.w3.org/2000/svg" width="64" height="56" viewBox="0 0 64 56" fill="none">
  <g clip-path="url(#clip0_202_4359)">
    <path d="M3.2 15.75C3.2 24.4453 9.65 31.5 17.6 31.5H29.93C32.19 33.6766 35.15 35 38.4 35C41.65 35 44.61 33.6766 46.87 31.5H49.6C55.79 31.5 60.8 26.0203 60.8 19.25C60.8 12.4797 55.79 7 49.6 7C48.53 7 47.5 7.16406 46.52 7.47031C44.38 3.02969 40.11 0 35.2 0C31.94 0 28.96 1.33437 26.69 3.53281C24.21 1.32344 21.05 0 17.6 0C9.65 0 3.2 7.05469 3.2 15.75ZM61.6 40.25H28C26.67 40.25 25.6 41.4203 25.6 42.875C25.6 44.3297 26.67 45.5 28 45.5H61.6C62.93 45.5 64 44.3297 64 42.875C64 41.4203 62.93 40.25 61.6 40.25ZM55.2 50.75H44C42.67 50.75 41.6 51.9203 41.6 53.375C41.6 54.8297 42.67 56 44 56H55.2C56.53 56 57.6 54.8297 57.6 53.375C57.6 51.9203 56.53 50.75 55.2 50.75ZM36 50.75H2.4C1.07 50.75 0 51.9203 0 53.375C0 54.8297 1.07 56 2.4 56H36C37.33 56 38.4 54.8297 38.4 53.375C38.4 51.9203 37.33 50.75 36 50.75ZM22.4 42.875C22.4 41.4203 21.33 40.25 20 40.25H9.6C8.27 40.25 7.2 41.4203 7.2 42.875C7.2 44.3297 8.27 45.5 9.6 45.5H20C21.33 45.5 22.4 44.3297 22.4 42.875Z" fill="#CE3E39"/>
  </g>
  <defs>
    <clipPath id="clip0_202_4359">
      <rect width="64" height="56" fill="white"/>
    </clipPath>
  </defs>
</svg>