<?xml version="1.0" encoding="utf-8"?>
<!-- Generator: Adobe Illustrator 26.2.1, SVG Export Plug-In . SVG Version: 6.00 Build 0)  -->
<svg version="1.1" id="Layer_1" xmlns="http://www.w3.org/2000/svg" xmlns:xlink="http://www.w3.org/1999/xlink" x="0px" y="0px"
	 viewBox="0 0 504.01 299.3" style="enable-background:new 0 0 504.01 299.3;" xml:space="preserve">
<style type="text/css">
	.st0{clip-path:url(#SVGID_00000141426953962549678600000010388324390762812337_);}
	.st1{clip-path:url(#SVGID_00000026869217124788213390000013864366191885594497_);fill:#0064A8;}
	.st2{clip-path:url(#SVGID_00000026869217124788213390000013864366191885594497_);fill:#99C1DC;}
	.st3{clip-path:url(#SVGID_00000026869217124788213390000013864366191885594497_);fill:#65A2CB;}
</style>
<g id="RGB_IH_Logo_00000036212696161783752960000006467670429366929811_">
	<g>
		<defs>
			<rect id="SVGID_1_" x="0" y="1.03" width="504.01" height="297.23"/>
		</defs>
		<clipPath id="SVGID_00000039107955713606456610000013603893271027634877_">
			<use xlink:href="#SVGID_1_"  style="overflow:visible;"/>
		</clipPath>
		<g style="clip-path:url(#SVGID_00000039107955713606456610000013603893271027634877_);">
			<defs>
				<rect id="SVGID_00000158719221548183415670000018162935709711682178_" x="0" y="1.03" width="504.01" height="297.23"/>
			</defs>
			<clipPath id="SVGID_00000078011280656876980950000006228649648199281849_">
				<use xlink:href="#SVGID_00000158719221548183415670000018162935709711682178_"  style="overflow:visible;"/>
			</clipPath>
			<path style="clip-path:url(#SVGID_00000078011280656876980950000006228649648199281849_);fill:#0064A8;" d="M306.81,297.01
				v-32.86c0-8.47-3.83-12.7-11.48-12.7c-5.37,0-9.55,2.39-14.66,8.27v-32.77h-10.95v70.09h10.95v-26.93l1.46-1.64
				c4.76-5.37,7.94-7.8,10.22-7.8c2.63,0,3.56,2.02,3.56,7.59v28.74H306.81z"/>
			<path style="clip-path:url(#SVGID_00000078011280656876980950000006228649648199281849_);fill:#0064A8;" d="M353.98,292.68
				l-4-8.73c-3.91,2.6-5.55,3.45-8.09,4.23c-1.72,0.58-3.36,0.76-5.02,0.76c-4,0-7.65-2.13-9.49-5.37
				c-0.99-1.84-1.29-3.36-1.46-7.13h28.07v-4.91c0-12.09-7.27-20.47-17.76-20.47c-12.12,0-21.23,10.66-21.23,24.8
				c0,13.64,7.91,22.4,20.5,22.4c4.94,0,9.49-1.05,13.93-3.15C350.44,294.61,351.99,293.82,353.98,292.68 M343.05,269.23h-16.59
				c0.91-6.07,4.21-9.52,9.02-9.52C340.6,259.71,342.79,262.4,343.05,269.23"/>
			<path style="clip-path:url(#SVGID_00000078011280656876980950000006228649648199281849_);fill:#0064A8;" d="M395.97,288.95
				c-2.92-0.29-3.36-0.96-3.36-4.99v-18.66c0-9.81-4.56-14.22-14.66-14.22c-11.48,0-18.05,4.53-18.05,12.41
				c0,1.23,0.09,1.72,0.55,3.07l10.37-2.39c-0.18-0.55-0.26-0.76-0.26-1.14c0-2.22,2.63-4.03,5.93-4.03c3.56,0,5.2,2.22,5.2,7.04
				v3.77l-12.03,3.65c-6.19,1.93-8.73,4.03-10.19,8.18c-0.47,1.43-0.73,2.98-0.73,4.53c0,7.1,5.11,12.12,12.3,12.12
				c4.29,0,7.83-1.64,11.86-5.49c1.9,3.94,3.65,4.91,9.11,4.91h2.28L395.97,288.95z M381.66,285.85c-1.55,1.26-2.1,1.64-2.83,2.02
				c-1.46,0.88-3.1,1.34-4.47,1.34c-2.75,0-4.38-1.72-4.38-4.61c0-1.17,0.18-2.02,0.82-3.74l10.84-3.77v8.76H381.66z"/>
			
				<rect x="404.36" y="226.94" style="clip-path:url(#SVGID_00000078011280656876980950000006228649648199281849_);fill:#0064A8;" width="10.84" height="70.09"/>
			<path style="clip-path:url(#SVGID_00000078011280656876980950000006228649648199281849_);fill:#0064A8;" d="M448.95,292.68
				l-3.45-8.35c-3.01,2.1-4.56,2.77-5.84,2.77c-1.72,0-2.19-1.43-2.19-6.43v-19.92h9.2v-8.44h-9.2v-13.38h-10.28v13.38l-6.28,1.14
				v7.3h6.28v27.77c0,6.63,2.63,9.7,8.29,9.7c3.01,0,6.28-1.05,9.46-2.98C446.15,294.52,447.52,293.65,448.95,292.68"/>
			<path style="clip-path:url(#SVGID_00000078011280656876980950000006228649648199281849_);fill:#0064A8;" d="M492.32,297.01
				v-32.86c0-8.47-3.83-12.7-11.48-12.7c-5.37,0-9.58,2.39-14.66,8.27v-32.77h-10.95v70.09h10.95v-26.93l1.46-1.64
				c4.73-5.37,7.94-7.8,10.19-7.8c2.63,0,3.56,2.02,3.56,7.59v28.74H492.32z"/>
			<path style="clip-path:url(#SVGID_00000078011280656876980950000006228649648199281849_);fill:#0064A8;" d="M37.41,243.91
				c-3.36,0-6.19-3.45-6.19-7.8c0-4.32,2.83-7.8,6.19-7.8c3.36,0,6.1,3.45,6.1,7.8C43.52,240.43,40.77,243.91,37.41,243.91
				 M31.92,252.18h10.84v44.71H31.92V252.18z"/>
			<path style="clip-path:url(#SVGID_00000078011280656876980950000006228649648199281849_);fill:#0064A8;" d="M82.59,264.56
				c-1.11-0.76-2.1-1.46-2.92-1.93c-3.01-1.93-6.66-3.07-9.75-3.07c-4.18,0-6.92,1.75-6.92,4.23c0,2.02,1.46,3.27,5.29,4.7
				c4.73,1.72,10.84,4.61,12.76,6.16c2.63,1.93,4.35,5.96,4.35,9.9c0,8.18-6.75,13.55-16.94,13.55c-2.1,0-4.38-0.29-6.92-0.85
				c-3.91-0.88-5.84-1.64-10.48-4.15l3.45-9.32c4.29,2.77,6.02,3.65,9.11,4.7c1.64,0.58,3.18,0.85,4.73,0.85
				c4.18,0,6.63-1.43,6.63-3.83c0-2.02-1.37-3.56-4.29-4.7l-7.27-2.98c-7.48-2.98-10.92-7.21-10.92-13.17
				c0-8.38,6.92-14.05,17.23-14.05c2.02,0,4.38,0.29,7.01,0.88c4,0.88,5.46,1.43,9.29,3.74L82.59,264.56z"/>
			
				<rect x="94.8" y="226.8" style="clip-path:url(#SVGID_00000078011280656876980950000006228649648199281849_);fill:#0064A8;" width="10.84" height="70.09"/>
			<path style="clip-path:url(#SVGID_00000078011280656876980950000006228649648199281849_);fill:#0064A8;" d="M149.83,297.44h-2.28
				c-5.46,0-7.21-0.96-9.11-4.91c-4,3.86-7.56,5.49-11.83,5.49c-7.18,0-12.3-4.99-12.3-12.12c0-1.55,0.26-3.07,0.73-4.53
				c1.46-4.15,4-6.25,10.19-8.18l12.03-3.65v-3.74c0-4.82-1.64-7.01-5.2-7.01c-3.27,0-5.93,1.84-5.93,4.03
				c0,0.38,0.09,0.58,0.26,1.17l-10.4,2.39c-0.44-1.34-0.55-1.81-0.55-3.1c0-7.86,6.54-12.38,18.05-12.38
				c10.11,0,14.66,4.44,14.66,14.22v18.66c0,4.03,0.47,4.7,3.36,4.99L149.83,297.44z M137.24,276.97l-10.84,3.77
				c-0.64,1.72-0.82,2.6-0.82,3.74c0,2.89,1.64,4.61,4.35,4.61c1.37,0,3.01-0.47,4.47-1.34c0.73-0.38,1.26-0.76,2.83-2.02V276.97"/>
			<path style="clip-path:url(#SVGID_00000078011280656876980950000006228649648199281849_);fill:#0064A8;" d="M187.09,296.86
				v-28.77c0-5.58-0.91-7.59-3.56-7.59c-2.28,0-5.46,2.39-10.19,7.8l-1.46,1.64v26.93h-10.92v-44.68h10.92v7.42
				c5.11-5.87,9.29-8.27,14.66-8.27c7.65,0,11.48,4.23,11.48,12.7v32.89h-10.92V296.86z"/>
			<path style="clip-path:url(#SVGID_00000078011280656876980950000006228649648199281849_);fill:#0064A8;" d="M235.93,296.86v-6.05
				c-1.55,2.6-2.28,3.48-4.29,4.82c-2.45,1.64-5.11,2.48-7.91,2.48c-10.02,0-17.41-9.43-17.41-22.31c0-13.84,9.02-25,20.21-25
				c1.2,0,2.45,0.09,3.74,0.47c2.28,0.5,3.27,0.96,5.64,2.69v-27.22h10.84v70.09h-10.81V296.86z M235.93,270.14
				c0-2.48-0.26-4.79-0.55-5.75c-0.73-2.39-3.74-4.15-7.1-4.15c-6.02,0-10.48,6.25-10.48,14.72c0,8.06,3.56,13.76,8.73,13.76
				c3.36,0,6.75-2.39,9.38-6.72v-11.86H235.93z"/>
			<polygon style="clip-path:url(#SVGID_00000078011280656876980950000006228649648199281849_);fill:#99C1DC;" points="245.68,1.03 
				378.65,135.94 110.81,135.94 			"/>
			<polygon style="clip-path:url(#SVGID_00000078011280656876980950000006228649648199281849_);fill:#65A2CB;" points="
				347.32,27.09 466.71,148.2 226.2,148.2 			"/>
			<polygon style="clip-path:url(#SVGID_00000078011280656876980950000006228649648199281849_);fill:#0064A8;" points="
				143.81,36.78 253.65,148.23 32.36,148.23 			"/>
			<path style="clip-path:url(#SVGID_00000078011280656876980950000006228649648199281849_);fill:#99C1DC;" d="M0,161.93
				c55.08-24.94,95.59-37.41,141.33-37.41c52.4,0,86.24,13.52,130.93,30.14c40.07,13.55,64.72,17.61,107.04,17.67
				c49.53,0.06,78.71-5.55,124.71-23.89c-45.33,40.33-82.74,60.28-143.4,60.28c-43.63,0-79.26-2.69-123.13-24.42
				c-39.49-14.54-59.76-28.56-104.44-31.69C83.24,149.11,51.96,156.73,0,161.93"/>
		</g>
	</g>
</g>
</svg>
